<?xml version="1.0" encoding="UTF-8" standalone="no"?>
<!-- Created with Inkscape (http://www.inkscape.org/) -->
<svg
   xmlns:dc="http://purl.org/dc/elements/1.1/"
   xmlns:cc="http://web.resource.org/cc/"
   xmlns:rdf="http://www.w3.org/1999/02/22-rdf-syntax-ns#"
   xmlns:svg="http://www.w3.org/2000/svg"
   xmlns="http://www.w3.org/2000/svg"
   xmlns:xlink="http://www.w3.org/1999/xlink"
   xmlns:sodipodi="http://sodipodi.sourceforge.net/DTD/sodipodi-0.dtd"
   xmlns:inkscape="http://www.inkscape.org/namespaces/inkscape"
   version="1.0"
   width="257.3815"
   height="214.33498"
   id="svg2"
   sodipodi:version="0.32"
   inkscape:version="0.45.1"
   sodipodi:docname="gate control A firing.svg"
   inkscape:output_extension="org.inkscape.output.svg.inkscape"
   sodipodi:docbase="C:\Documents and Settings\earthworm\Desktop">
  <metadata
     id="metadata77">
    <rdf:RDF>
      <cc:Work
         rdf:about="">
        <dc:format>image/svg+xml</dc:format>
        <dc:type
           rdf:resource="http://purl.org/dc/dcmitype/StillImage" />
      </cc:Work>
    </rdf:RDF>
  </metadata>
  <sodipodi:namedview
     inkscape:window-height="671"
     inkscape:window-width="1024"
     inkscape:pageshadow="2"
     inkscape:pageopacity="0.0"
     guidetolerance="10.0"
     gridtolerance="10.0"
     objecttolerance="10.0"
     borderopacity="1.0"
     bordercolor="#666666"
     pagecolor="#ffffff"
     id="base"
     inkscape:zoom="2.1928292"
     inkscape:cx="84.311903"
     inkscape:cy="107.16749"
     inkscape:window-x="-4"
     inkscape:window-y="-4"
     inkscape:current-layer="svg2" />
  <defs
     id="defs4">
    <linearGradient
       id="linearGradient4963">
      <stop
         style="stop-color:#2bbff1;stop-opacity:0.50515461;"
         offset="0"
         id="stop4967" />
      <stop
         id="stop3210"
         offset="1"
         style="stop-color:#1610f9;stop-opacity:0.94117647;" />
    </linearGradient>
    <linearGradient
       id="linearGradient4952">
      <stop
         style="stop-color:#102aff;stop-opacity:1"
         offset="0"
         id="stop4954" />
      <stop
         style="stop-color:#f3bbba;stop-opacity:0.49803922"
         offset="1"
         id="stop4956" />
    </linearGradient>
    <linearGradient
       id="linearGradient4946">
      <stop
         style="stop-color:#afe9c6;stop-opacity:1"
         offset="0"
         id="stop4948" />
      <stop
         style="stop-color:#feff00;stop-opacity:0.7525773"
         offset="1"
         id="stop4950" />
    </linearGradient>
    <linearGradient
       id="linearGradient4928">
      <stop
         style="stop-color:#fff710;stop-opacity:1"
         offset="0"
         id="stop4930" />
      <stop
         style="stop-color:#f3bbba;stop-opacity:0.49803922"
         offset="1"
         id="stop4936" />
    </linearGradient>
    <linearGradient
       id="linearGradient4468">
      <stop
         style="stop-color:#afe9c6;stop-opacity:1"
         offset="0"
         id="stop4470" />
      <stop
         style="stop-color:#feff00;stop-opacity:0.7525773"
         offset="1"
         id="stop4472" />
    </linearGradient>
    <linearGradient
       id="linearGradient3269">
      <stop
         style="stop-color:#afbbe9;stop-opacity:1"
         offset="0"
         id="stop3271" />
      <stop
         style="stop-color:#ffff00;stop-opacity:0.49803922"
         offset="1"
         id="stop3276" />
      <stop
         style="stop-color:#d7f463;stop-opacity:0.24705882"
         offset="1"
         id="stop4466" />
      <stop
         style="stop-color:#1953de;stop-opacity:0"
         offset="1"
         id="stop3273" />
    </linearGradient>
    <linearGradient
       x1="-120.7621"
       y1="29.604498"
       x2="-121.08051"
       y2="76.073112"
       id="linearGradient3356"
       xlink:href="#linearGradient4946"
       gradientUnits="userSpaceOnUse"
       gradientTransform="translate(134.35216,-4.3023226)" />
    <linearGradient
       x1="-92.608047"
       y1="278.73428"
       x2="-93.397636"
       y2="254.11812"
       id="linearGradient4918"
       xlink:href="#linearGradient4468"
       gradientUnits="userSpaceOnUse" />
    <linearGradient
       x1="-42.977177"
       y1="143.09348"
       x2="-42.977177"
       y2="195.26578"
       id="linearGradient4934"
       xlink:href="#linearGradient4952"
       gradientUnits="userSpaceOnUse" />
    <linearGradient
       x1="-44.737675"
       y1="238.66965"
       x2="-44.737675"
       y2="278.75171"
       id="linearGradient4944"
       xlink:href="#linearGradient4928"
       gradientUnits="userSpaceOnUse" />
    <linearGradient
       x1="2.6352787"
       y1="123.0201"
       x2="-34.210361"
       y2="123.51802"
       id="linearGradient4969"
       xlink:href="#linearGradient4963"
       gradientUnits="userSpaceOnUse" />
    <linearGradient
       inkscape:collect="always"
       xlink:href="#linearGradient4963"
       id="linearGradient5151"
       x1="-48.114353"
       y1="91.831276"
       x2="-0.24288514"
       y2="91.831272"
       gradientUnits="userSpaceOnUse" />
  </defs>
  <g
     transform="matrix(1,0,0,-1,248.21395,303.0564)"
     style="fill:#afe9c6"
     id="g3191">
    <g
       style="fill:#afe9c6"
       id="g3193">
      <g
         style="fill:#afe9c6"
         id="g3195">
        <path
           d="M -196.59806,290.26374 L -82.357377,290.34843 C -82.263457,290.3485 -68.993537,291.49159 -68.781847,282.55798 L -68.901597,248.87405 C -68.886147,244.97601 -71.637007,244.19208 -71.927807,244.02799 C -72.230527,243.85716 -77.875037,241.69126 -78.349477,238.78809 C -78.823917,235.88492 -76.756177,235.19146 -74.243447,235.08209 C -71.670947,234.97011 -58.287534,234.99669 -55.507656,234.99669 C -52.727779,234.99669 -50.456289,235.80942 -51.028007,238.78809 C -51.599725,241.76676 -57.847694,243.79317 -58.133668,244.02799 C -58.405547,244.25123 -60.304085,245.00985 -60.29766,248.87405 L -60.177906,282.69538 C -60.347263,301.15536 -82.865457,298.8163 -82.865457,298.8163 L -247.86665,298.93327 L -247.87343,290.60796 L -204.83646,290.40414"
           style="fill:url(#linearGradient4918);fill-opacity:1;fill-rule:evenodd;stroke:#000000;stroke-width:0.384;stroke-linecap:butt;stroke-linejoin:miter;stroke-miterlimit:4;stroke-dasharray:none;stroke-opacity:1"
           id="path3197" />
      </g>
    </g>
  </g>
  <rect
     width="7.8571429"
     height="0"
     ry="0"
     x="29.170902"
     y="-695.4787"
     style="fill:#ffeeaa;fill-opacity:0.54117856;stroke:#0b0808;stroke-width:0;stroke-miterlimit:4;stroke-dasharray:none;stroke-dashoffset:0;stroke-opacity:1"
     id="rect6796" />
  <rect
     width="0"
     height="4.0406103"
     ry="0"
     x="133.77728"
     y="-752.03156"
     style="fill:#ffcc00;fill-opacity:0.54117856;stroke:#0b0808;stroke-width:0.5;stroke-miterlimit:4;stroke-dasharray:none;stroke-dashoffset:0;stroke-opacity:1"
     id="rect6860" />
  <rect
     width="0"
     height="17.172594"
     x="258.78622"
     y="-503.28403"
     style="fill:#ffcc00;fill-opacity:0.54117856;stroke:#0b0808;stroke-width:0.5;stroke-miterlimit:4;stroke-dasharray:none;stroke-dashoffset:0;stroke-opacity:1"
     id="rect6866" />
  <path
     d="M 217.43624,103.07325 C 217.43624,121.69182 202.32552,136.80254 183.70696,136.80254 C 165.08839,136.80254 149.97767,121.69182 149.97767,103.07325 C 149.97767,84.45469 165.08839,69.343974 183.70696,69.343974 C 202.32552,69.343974 217.43624,84.45469 217.43624,103.07325 z M 216.24201,97.38505 L 257.30273,97.4579 C 257.30273,100.58911 257.3059,108.38092 257.3059,108.38092 L 216.80157,108.44946 L 216.24201,97.38505 z "
     style="fill:#ff8c3a;fill-opacity:0.53642387;stroke:#0b0808;stroke-width:0;stroke-miterlimit:4;stroke-dashoffset:0;stroke-opacity:1"
     id="path2160" />
  <g
     transform="matrix(9.7966092e-3,0,0,9.7966092e-3,198.67741,24.677684)"
     id="g6930">
    <text
       x="-471.24011"
       y="-946.41162"
       style="font-size:12px;font-style:normal;font-weight:normal;fill:#000000;fill-opacity:1;stroke:none;stroke-width:1px;stroke-linecap:butt;stroke-linejoin:miter;stroke-opacity:1;font-family:Lello"
       id="text2171"
       xml:space="preserve"><tspan
         x="-471.24011"
         y="-946.41162"
         id="tspan2173" /></text>
    <path
       d="M 1995.5062,1435.9956 L 1830.3226,1435.9956 C 1854.3492,1323.2033 1866.3625,1221.0899 1866.3627,1129.6552 L 1866.3627,39.443851 C 1866.3625,-74.014477 1876.5405,-158.44153 1896.8966,-213.83757 C 1917.2523,-269.23119 1956.9631,-318.11879 2016.029,-360.50053 C 2075.0942,-402.87955 2149.0096,-424.06974 2237.7753,-424.07116 C 2343.2252,-424.06974 2431.8236,-396.20548 2503.5707,-340.47828 C 2575.3162,-284.74841 2611.1893,-205.49377 2611.1902,-102.7141 C 2611.1893,17.420359 2554.126,115.86297 2440,192.61404 C 2610.1882,272.70375 2695.2827,398.51008 2695.2837,570.03339 C 2695.2827,663.47088 2672.7577,747.06367 2627.7086,820.81203 C 2582.6577,894.56075 2530.5999,947.11909 2471.5351,978.48723 C 2412.4687,1009.8554 2341.8904,1025.5395 2259.7998,1025.5395 C 2166.3622,1025.5395 2090.2777,990.50058 2031.5462,920.42271 L 2031.5462,1106.6296 C 2031.5459,1234.7717 2019.5325,1344.5603 1995.5062,1435.9956 L 1995.5062,1435.9956 z M 2031.5462,830.3226 C 2083.6037,916.41834 2156.3511,959.46613 2249.7887,959.46609 C 2339.8882,959.46613 2405.9615,926.59631 2448.0089,860.85653 C 2490.0549,795.11702 2511.0782,715.19496 2511.079,621.09012 C 2511.0782,549.01048 2497.2295,475.4288 2469.5328,400.34485 C 2441.8347,325.2621 2406.2952,268.0319 2362.9144,228.65408 C 2322.8693,238.66597 2286.8293,243.67152 2254.7942,243.67077 C 2187.3855,243.67152 2153.6815,225.98522 2153.6819,190.61181 C 2153.6815,158.57706 2182.0463,142.55928 2238.7764,142.55842 C 2274.1485,142.55928 2318.1974,150.56817 2370.9233,166.58512 C 2418.3086,86.497042 2442.0015,-0.59964493 2442.0023,-94.705203 C 2442.0015,-178.79746 2423.481,-243.20229 2386.4405,-287.91989 C 2349.3987,-332.63491 2301.1785,-354.99306 2241.7798,-354.99441 C 2194.3933,-354.99306 2153.8483,-341.64491 2120.1446,-314.94992 C 2086.4402,-288.2523 2063.2477,-256.38359 2050.5673,-219.34369 C 2037.8863,-182.30135 2031.5459,-121.73412 2031.5462,-37.6418 L 2031.5462,830.3226 z "
       style="font-size:2050.27807617px;font-style:normal;font-weight:normal;fill:#000000;fill-opacity:1;stroke:none;stroke-width:1px;stroke-linecap:butt;stroke-linejoin:miter;stroke-opacity:1;font-family:Times New Roman"
       id="text2175" />
  </g>
  <path
     d="M 208.86988,23.126394 L 206.21571,30.323654 L 211.53374,30.323654 L 208.86988,23.126394 z M 207.76559,21.198734 L 209.98386,21.198734 L 215.49562,35.661064 L 213.4614,35.661064 L 212.144,31.951034 L 205.62481,31.951034 L 204.30742,35.661064 L 202.24414,35.661064 L 207.76559,21.198734 z "
     id="flowRoot6935" />
  <path
     d="M 203.4769,37.782954 L 203.4769,39.032504 L 202.03951,39.032504 C 201.50048,39.032514 201.12616,39.141414 200.91654,39.359184 C 200.70692,39.576984 200.60211,39.968994 200.60211,40.535234 L 200.60211,41.343764 L 203.07671,41.343764 L 203.07671,42.511644 L 200.60211,42.511644 L 200.60211,50.490804 L 199.09122,50.490804 L 199.09122,42.511644 L 197.65383,42.511644 L 197.65383,41.343764 L 199.09122,41.343764 L 199.09122,40.706744 C 199.09122,39.688594 199.32806,38.946764 199.80175,38.481234 C 200.27543,38.015724 201.02679,37.782964 202.05584,37.782954 L 203.4769,37.782954 z M 204.72645,41.343764 L 206.22917,41.343764 L 206.22917,50.490804 L 204.72645,50.490804 L 204.72645,41.343764 z M 204.72645,37.782954 L 206.22917,37.782954 L 206.22917,39.685864 L 204.72645,39.685864 L 204.72645,37.782954 z M 215.93157,45.925444 C 215.93156,44.820184 215.70424,43.953124 215.24962,43.324264 C 214.79499,42.695414 214.17021,42.380984 213.3753,42.380974 C 212.58037,42.380984 211.9556,42.695414 211.50097,43.324264 C 211.04634,43.953124 210.81902,44.820184 210.81903,45.925444 C 210.81902,47.030714 211.04634,47.897784 211.50097,48.526634 C 211.9556,49.155494 212.58037,49.469924 213.3753,49.469924 C 214.17021,49.469924 214.79499,49.155494 215.24962,48.526634 C 215.70424,47.897784 215.93156,47.030714 215.93157,45.925444 L 215.93157,45.925444 z M 210.81903,42.732154 C 211.13481,42.187694 211.53364,41.783434 212.01549,41.519354 C 212.49734,41.255294 213.07311,41.123264 213.74281,41.123254 C 214.85352,41.123264 215.75597,41.564284 216.45017,42.446314 C 217.14436,43.328354 217.49146,44.488064 217.49146,45.925444 C 217.49146,47.362844 217.14436,48.522554 216.45017,49.404594 C 215.75597,50.286624 214.85352,50.727644 213.74281,50.727644 C 213.07311,50.727644 212.49734,50.595614 212.01549,50.331544 C 211.53364,50.067474 211.13481,49.663214 210.81903,49.118744 L 210.81903,50.490804 L 209.30813,50.490804 L 209.30813,37.782954 L 210.81903,37.782954 L 210.81903,42.732154 z M 227.80638,45.541604 L 227.80638,46.276634 L 220.8971,46.276634 C 220.96243,47.311124 221.27414,48.099234 221.83222,48.640974 C 222.3903,49.182724 223.16752,49.453594 224.1639,49.453594 C 224.74103,49.453594 225.30047,49.382814 225.84222,49.241254 C 226.38395,49.099694 226.92161,48.887344 227.4552,48.604224 L 227.4552,50.025284 C 226.91617,50.253954 226.36354,50.428184 225.7973,50.547974 C 225.23105,50.667754 224.65664,50.727644 224.07406,50.727644 C 222.61489,50.727644 221.45926,50.302954 220.60717,49.453594 C 219.75508,48.604224 219.32904,47.455404 219.32904,46.007124 C 219.32904,44.509844 219.7333,43.321544 220.54184,42.442224 C 221.35037,41.562924 222.44066,41.123264 223.81272,41.123254 C 225.04321,41.123264 226.01644,41.519364 226.73242,42.311554 C 227.44838,43.103754 227.80637,44.180444 227.80638,45.541604 L 227.80638,45.541604 z M 226.30365,45.100584 C 226.29276,44.278444 226.06272,43.622364 225.61354,43.132334 C 225.16435,42.642324 224.56952,42.397314 223.82905,42.397304 C 222.99057,42.397314 222.31952,42.634154 221.81589,43.107834 C 221.31225,43.581524 221.02233,44.248504 220.9461,45.108754 L 226.30365,45.100584 z M 235.57319,42.748484 C 235.4044,42.650494 235.22064,42.578354 235.02192,42.532064 C 234.82318,42.485794 234.60404,42.462654 234.36448,42.462644 C 233.51511,42.462654 232.86311,42.738964 232.40848,43.291594 C 231.95385,43.844234 231.72654,44.637794 231.72654,45.672274 L 231.72654,50.490804 L 230.21564,50.490804 L 230.21564,41.343764 L 231.72654,41.343764 L 231.72654,42.764824 C 232.04233,42.209474 232.4534,41.797044 232.95976,41.527524 C 233.4661,41.258024 234.08135,41.123264 234.8055,41.123254 C 234.90894,41.123264 235.02328,41.130074 235.14851,41.143674 C 235.27373,41.157294 235.41257,41.177714 235.56503,41.204924 L 235.57319,42.748484 z "
     id="flowRoot6947" />
  <path
     d="M 213.02498,154.29686 L 213.02498,155.54641 L 211.58759,155.54641 C 211.04856,155.54642 210.67424,155.65532 210.46463,155.87309 C 210.255,156.09089 210.15019,156.4829 210.1502,157.04914 L 210.1502,157.85767 L 212.6248,157.85767 L 212.6248,159.02555 L 210.1502,159.02555 L 210.1502,167.00471 L 208.6393,167.00471 L 208.6393,159.02555 L 207.20191,159.02555 L 207.20191,157.85767 L 208.6393,157.85767 L 208.6393,157.22065 C 208.6393,156.2025 208.87614,155.46067 209.34983,154.99514 C 209.82351,154.52963 210.57488,154.29687 211.60392,154.29686 L 213.02498,154.29686 z M 214.27453,157.85767 L 215.77726,157.85767 L 215.77726,167.00471 L 214.27453,167.00471 L 214.27453,157.85767 z M 214.27453,154.29686 L 215.77726,154.29686 L 215.77726,156.19977 L 214.27453,156.19977 L 214.27453,154.29686 z M 225.47965,162.43936 C 225.47964,161.3341 225.25232,160.46703 224.7977,159.83817 C 224.34307,159.20932 223.71829,158.89489 222.92338,158.89488 C 222.12845,158.89489 221.50368,159.20932 221.04905,159.83817 C 220.59442,160.46703 220.36711,161.3341 220.36711,162.43936 C 220.36711,163.54463 220.59442,164.41169 221.04905,165.04054 C 221.50368,165.6694 222.12845,165.98383 222.92338,165.98383 C 223.71829,165.98383 224.34307,165.6694 224.7977,165.04054 C 225.25232,164.41169 225.47964,163.54463 225.47965,162.43936 L 225.47965,162.43936 z M 220.36711,159.24606 C 220.6829,158.7016 221.08172,158.29734 221.56357,158.03326 C 222.04542,157.7692 222.62119,157.63717 223.29089,157.63716 C 224.4016,157.63717 225.30405,158.07819 225.99825,158.96022 C 226.69244,159.84226 227.03954,161.00197 227.03954,162.43936 C 227.03954,163.87675 226.69244,165.03646 225.99825,165.9185 C 225.30405,166.80053 224.4016,167.24155 223.29089,167.24155 C 222.62119,167.24155 222.04542,167.10952 221.56357,166.84545 C 221.08172,166.58138 220.6829,166.17712 220.36711,165.63265 L 220.36711,167.00471 L 218.85621,167.00471 L 218.85621,154.29686 L 220.36711,154.29686 L 220.36711,159.24606 z M 237.35446,162.05551 L 237.35446,162.79054 L 230.44518,162.79054 C 230.51051,163.82503 230.82222,164.61314 231.3803,165.15488 C 231.93838,165.69663 232.7156,165.9675 233.71198,165.9675 C 234.28911,165.9675 234.84855,165.89672 235.3903,165.75516 C 235.93203,165.6136 236.46969,165.40125 237.00328,165.11813 L 237.00328,166.53919 C 236.46425,166.76786 235.91162,166.94209 235.34538,167.06188 C 234.77913,167.18166 234.20472,167.24155 233.62214,167.24155 C 232.16297,167.24155 231.00734,166.81687 230.15525,165.9675 C 229.30316,165.11813 228.87712,163.96931 228.87712,162.52103 C 228.87712,161.02375 229.28138,159.83545 230.08992,158.95613 C 230.89845,158.07683 231.98874,157.63717 233.3608,157.63716 C 234.59129,157.63717 235.56452,158.03327 236.2805,158.82546 C 236.99646,159.61767 237.35445,160.69435 237.35446,162.05551 L 237.35446,162.05551 z M 235.85173,161.61449 C 235.84084,160.79235 235.6108,160.13627 235.16162,159.64624 C 234.71243,159.15623 234.1176,158.91122 233.37713,158.91121 C 232.53865,158.91122 231.8676,159.14806 231.36397,159.62174 C 230.86033,160.09544 230.57041,160.76241 230.49418,161.62266 L 235.85173,161.61449 z M 245.12127,159.26239 C 244.95248,159.1644 244.76872,159.09226 244.57,159.04597 C 244.37126,158.9997 244.15212,158.97656 243.91256,158.97655 C 243.06319,158.97656 242.41119,159.25287 241.95656,159.8055 C 241.50193,160.35814 241.27462,161.1517 241.27462,162.18618 L 241.27462,167.00471 L 239.76372,167.00471 L 239.76372,157.85767 L 241.27462,157.85767 L 241.27462,159.27873 C 241.59041,158.72338 242.00148,158.31095 242.50784,158.04143 C 243.01418,157.77193 243.62943,157.63717 244.35358,157.63716 C 244.45702,157.63717 244.57136,157.64398 244.69659,157.65758 C 244.82181,157.6712 244.96065,157.69162 245.11311,157.71883 L 245.12127,159.26239 z "
     id="flowRoot6959" />
  <path
     d="M 202.08997,154.88133 L 202.08997,156.71868 C 201.50337,156.17238 200.87798,155.76407 200.21377,155.49377 C 199.54955,155.22351 198.84365,155.08836 198.09607,155.08835 C 196.62386,155.08836 195.49672,155.53835 194.71462,156.43833 C 193.93251,157.33834 193.54146,158.63945 193.54146,160.34166 C 193.54146,162.03815 193.93251,163.33637 194.71462,164.23637 C 195.49672,165.13637 196.62386,165.58636 198.09607,165.58636 C 198.84365,165.58636 199.54955,165.45121 200.21377,165.18093 C 200.87798,164.91065 201.50337,164.50234 202.08997,163.95602 L 202.08997,165.77614 C 201.48038,166.19019 200.83485,166.50072 200.1534,166.70776 C 199.47193,166.91478 198.75164,167.0183 197.99255,167.0183 C 196.04304,167.0183 194.50759,166.42165 193.38619,165.22838 C 192.26479,164.03509 191.7041,162.4062 191.7041,160.34166 C 191.7041,158.27141 192.26479,156.63963 193.38619,155.44634 C 194.50759,154.25307 196.04304,153.65642 197.99255,153.6564 C 198.76314,153.65642 199.48918,153.7585 200.17064,153.96263 C 200.8521,154.1668 201.49187,154.47303 202.08997,154.88133 L 202.08997,154.88133 z "
     id="flowRoot6967" />
  <path
     d="M 157.86346,87.94269 L 157.86346,91.13392 L 159.30833,91.13392 C 159.84304,91.13393 160.25641,90.99551 160.54842,90.71867 C 160.84042,90.44183 160.98643,90.04743 160.98643,89.53546 C 160.98643,89.0273 160.84042,88.63479 160.54842,88.35795 C 160.25641,88.08112 159.84304,87.94269 159.30833,87.94269 L 157.86346,87.94269 z M 156.71438,86.9984 L 159.30833,86.9984 C 160.2602,86.99841 160.97979,87.21363 161.46711,87.64405 C 161.95441,88.07448 162.19807,88.70495 162.19808,89.53546 C 162.19807,90.37358 161.95441,91.00689 161.46711,91.43542 C 160.97979,91.86395 160.2602,92.07821 159.30833,92.07821 L 157.86346,92.07821 L 157.86346,95.4913 L 156.71438,95.4913 L 156.71438,86.9984 z M 167.39166,90.09863 C 167.27409,90.03037 167.1461,89.98012 167.00769,89.94787 C 166.86926,89.91565 166.71662,89.89954 166.54976,89.89953 C 165.95816,89.89954 165.50403,90.09199 165.18737,90.47691 C 164.87071,90.86183 164.71238,91.41456 164.71239,92.13509 L 164.71239,95.4913 L 163.66002,95.4913 L 163.66002,89.1202 L 164.71239,89.1202 L 164.71239,90.11 C 164.93234,89.72318 165.21866,89.43592 165.57135,89.24819 C 165.92403,89.06048 166.35256,88.96662 166.85694,88.96661 C 166.92899,88.96662 167.00863,88.97136 167.09586,88.98084 C 167.18308,88.99032 167.27978,89.00454 167.38597,89.0235 L 167.39166,90.09863 z M 170.96971,89.85401 C 170.40845,89.85402 169.96475,90.07303 169.63861,90.51104 C 169.31247,90.94906 169.1494,91.54919 169.1494,92.31144 C 169.1494,93.0737 169.31152,93.67384 169.63576,94.11185 C 169.96,94.54986 170.40465,94.76886 170.96971,94.76886 C 171.52718,94.76886 171.96898,94.54891 172.29513,94.109 C 172.62126,93.66909 172.78433,93.06991 172.78434,92.31144 C 172.78433,91.55677 172.62126,90.95853 172.29513,90.51672 C 171.96898,90.07493 171.52718,89.85402 170.96971,89.85401 L 170.96971,89.85401 z M 170.96971,88.96661 C 171.87987,88.96662 172.59472,89.26243 173.11427,89.85401 C 173.63381,90.44562 173.89358,91.26476 173.89359,92.31144 C 173.89358,93.35434 173.63381,94.17253 173.11427,94.76602 C 172.59472,95.35952 171.87987,95.65627 170.96971,95.65627 C 170.05576,95.65627 169.33996,95.35952 168.82231,94.76602 C 168.30466,94.17253 168.04583,93.35434 168.04583,92.31144 C 168.04583,91.26476 168.30466,90.44562 168.82231,89.85401 C 169.33996,89.26243 170.05576,88.96662 170.96971,88.96661 L 170.96971,88.96661 z M 175.62289,89.1202 L 176.66957,89.1202 L 176.66957,95.60507 C 176.66957,96.41663 176.51503,97.00444 176.20596,97.3685 C 175.89688,97.73256 175.39914,97.91459 174.71273,97.91459 L 174.31454,97.91459 L 174.31454,97.02719 L 174.59327,97.02719 C 174.99147,97.02718 175.26262,96.93523 175.40673,96.7513 C 175.55083,96.56737 175.62289,96.1853 175.62289,95.60507 L 175.62289,89.1202 z M 175.62289,86.64003 L 176.66957,86.64003 L 176.66957,87.96544 L 175.62289,87.96544 L 175.62289,86.64003 z M 184.30351,92.04408 L 184.30351,92.55605 L 179.49105,92.55605 C 179.53656,93.27659 179.75367,93.82553 180.14239,94.20286 C 180.5311,94.5802 181.07245,94.76886 181.76645,94.76886 C 182.16843,94.76886 182.55809,94.71956 182.93543,94.62096 C 183.31276,94.52237 183.68725,94.37447 184.0589,94.17726 L 184.0589,95.16706 C 183.68346,95.32633 183.29854,95.44769 182.90414,95.53112 C 182.50974,95.61455 182.10965,95.65627 181.70387,95.65627 C 180.68753,95.65627 179.88261,95.36047 179.28911,94.76886 C 178.69561,94.17726 178.39887,93.37708 178.39887,92.36833 C 178.39887,91.32544 178.68045,90.49777 179.24361,89.8853 C 179.80676,89.27285 180.56617,88.96662 181.52184,88.96661 C 182.3789,88.96662 183.05678,89.24252 183.55547,89.79429 C 184.05416,90.34608 184.3035,91.09601 184.30351,92.04408 L 184.30351,92.04408 z M 183.25683,91.73691 C 183.24924,91.16427 183.08901,90.7073 182.77615,90.36598 C 182.46328,90.02468 182.04897,89.85402 181.53322,89.85401 C 180.9492,89.85402 180.4818,90.01899 180.13101,90.34892 C 179.78022,90.67885 179.57828,91.14341 179.52519,91.7426 L 183.25683,91.73691 z M 190.60634,89.36481 L 190.60634,90.34323 C 190.31054,90.18017 190.01379,90.05786 189.7161,89.97632 C 189.41839,89.89479 189.11785,89.85402 188.81447,89.85401 C 188.13564,89.85402 187.60851,90.06924 187.23307,90.49966 C 186.85763,90.9301 186.66991,91.53402 186.66992,92.31144 C 186.66991,93.08887 186.85763,93.6928 187.23307,94.12323 C 187.60851,94.55366 188.13564,94.76886 188.81447,94.76886 C 189.11785,94.76886 189.41839,94.7281 189.7161,94.64656 C 190.01379,94.56502 190.31054,94.44273 190.60634,94.27966 L 190.60634,95.2467 C 190.31433,95.38322 190.01189,95.48562 189.69903,95.55388 C 189.38616,95.62214 189.05338,95.65627 188.7007,95.65627 C 187.74124,95.65627 186.97899,95.35478 186.41393,94.7518 C 185.84888,94.14882 185.56635,93.33537 185.56635,92.31144 C 185.56635,91.27235 185.85172,90.45511 186.42247,89.8597 C 186.99321,89.26432 187.77537,88.96662 188.76897,88.96661 C 189.09131,88.96662 189.40607,88.99981 189.71325,89.06616 C 190.02043,89.13254 190.31812,89.23209 190.60634,89.36481 L 190.60634,89.36481 z M 193.47334,87.31126 L 193.47334,89.1202 L 195.62927,89.1202 L 195.62927,89.93366 L 193.47334,89.93366 L 193.47334,93.39226 C 193.47333,93.9118 193.54444,94.24552 193.68665,94.39343 C 193.82886,94.54133 194.11803,94.61527 194.55415,94.61527 L 195.62927,94.61527 L 195.62927,95.4913 L 194.55415,95.4913 C 193.74638,95.4913 193.18891,95.34056 192.88174,95.03906 C 192.57456,94.73758 192.42097,94.18864 192.42097,93.39226 L 192.42097,89.93366 L 191.65302,89.93366 L 191.65302,89.1202 L 192.42097,89.1202 L 192.42097,87.31126 L 193.47334,87.31126 z M 197.01157,89.1202 L 198.05825,89.1202 L 198.05825,95.4913 L 197.01157,95.4913 L 197.01157,89.1202 z M 197.01157,86.64003 L 198.05825,86.64003 L 198.05825,87.96544 L 197.01157,87.96544 L 197.01157,86.64003 z M 202.71143,89.85401 C 202.15016,89.85402 201.70646,90.07303 201.38032,90.51104 C 201.05418,90.94906 200.89111,91.54919 200.89111,92.31144 C 200.89111,93.0737 201.05323,93.67384 201.37748,94.11185 C 201.70172,94.54986 202.14637,94.76886 202.71143,94.76886 C 203.26889,94.76886 203.7107,94.54891 204.03684,94.109 C 204.36298,93.66909 204.52605,93.06991 204.52605,92.31144 C 204.52605,91.55677 204.36298,90.95853 204.03684,90.51672 C 203.7107,90.07493 203.26889,89.85402 202.71143,89.85401 L 202.71143,89.85401 z M 202.71143,88.96661 C 203.62158,88.96662 204.33643,89.26243 204.85598,89.85401 C 205.37553,90.44562 205.6353,91.26476 205.63531,92.31144 C 205.6353,93.35434 205.37553,94.17253 204.85598,94.76602 C 204.33643,95.35952 203.62158,95.65627 202.71143,95.65627 C 201.79748,95.65627 201.08168,95.35952 200.56403,94.76602 C 200.04637,94.17253 199.78755,93.35434 199.78755,92.31144 C 199.78755,91.26476 200.04637,90.44562 200.56403,89.85401 C 201.08168,89.26243 201.79748,88.96662 202.71143,88.96661 L 202.71143,88.96661 z M 212.66058,91.64589 L 212.66058,95.4913 L 211.6139,95.4913 L 211.6139,91.68002 C 211.61389,91.07704 211.49633,90.62576 211.26121,90.32616 C 211.02608,90.02657 210.6734,89.87678 210.20316,89.87677 C 209.6381,89.87678 209.1925,90.05691 208.86636,90.41718 C 208.54022,90.77745 208.37715,91.26856 208.37715,91.89049 L 208.37715,95.4913 L 207.32478,95.4913 L 207.32478,89.1202 L 208.37715,89.1202 L 208.37715,90.11 C 208.62744,89.72698 208.9223,89.44066 209.26171,89.25104 C 209.60112,89.06143 209.99268,88.96662 210.43638,88.96661 C 211.1683,88.96662 211.72197,89.19322 212.09742,89.64639 C 212.47285,90.09958 212.66057,90.76607 212.66058,91.64589 L 212.66058,91.64589 z M 169.90878,110.95265 L 169.90878,114.79806 L 168.8621,114.79806 L 168.8621,110.98678 C 168.8621,110.3838 168.74453,109.93252 168.50941,109.63292 C 168.27429,109.33333 167.9216,109.18354 167.45136,109.18353 C 166.8863,109.18354 166.4407,109.36367 166.11456,109.72394 C 165.78843,110.08421 165.62536,110.57532 165.62536,111.19725 L 165.62536,114.79806 L 164.57298,114.79806 L 164.57298,108.42696 L 165.62536,108.42696 L 165.62536,109.41676 C 165.87565,109.03374 166.1705,108.74742 166.50991,108.5578 C 166.84933,108.36819 167.24088,108.27338 167.68458,108.27337 C 168.41649,108.27338 168.97018,108.49998 169.34562,108.95315 C 169.72105,109.40634 169.90877,110.07283 169.90878,110.95265 L 169.90878,110.95265 z M 177.45739,111.35084 L 177.45739,111.86281 L 172.64494,111.86281 C 172.69045,112.58335 172.90755,113.13229 173.29626,113.50962 C 173.68498,113.88696 174.22633,114.07562 174.92033,114.07562 C 175.32231,114.07562 175.71197,114.02632 176.08931,113.92772 C 176.46664,113.82913 176.84114,113.68123 177.21279,113.48402 L 177.21279,114.47382 C 176.83734,114.63309 176.45243,114.75445 176.05802,114.83788 C 175.66362,114.92131 175.26353,114.96303 174.85775,114.96303 C 173.84142,114.96303 173.0365,114.66723 172.443,114.07562 C 171.8495,113.48402 171.55275,112.68384 171.55275,111.67509 C 171.55275,110.6322 171.83432,109.80453 172.39749,109.19206 C 172.96065,108.57961 173.72006,108.27338 174.67572,108.27337 C 175.53278,108.27338 176.21066,108.54928 176.70936,109.10105 C 177.20805,109.65284 177.45738,110.40277 177.45739,111.35084 L 177.45739,111.35084 z M 176.41071,111.04367 C 176.40312,110.47103 176.2429,110.01406 175.93004,109.67274 C 175.61717,109.33144 175.20286,109.16078 174.6871,109.16077 C 174.10309,109.16078 173.63568,109.32575 173.2849,109.65568 C 172.9341,109.98561 172.73216,110.45017 172.67907,111.04936 L 176.41071,111.04367 z M 179.06723,112.28375 L 179.06723,108.42696 L 180.11392,108.42696 L 180.11392,112.24394 C 180.11391,112.84691 180.23147,113.29915 180.4666,113.60064 C 180.70172,113.90212 181.0544,114.05287 181.52465,114.05287 C 182.08971,114.05287 182.53625,113.87274 182.86429,113.51247 C 183.19232,113.15219 183.35634,112.6611 183.35635,112.03915 L 183.35635,108.42696 L 184.40303,108.42696 L 184.40303,114.79806 L 183.35635,114.79806 L 183.35635,113.81964 C 183.10226,114.20646 182.80741,114.49373 182.47179,114.68145 C 182.13616,114.86917 181.7465,114.96303 181.30281,114.96303 C 180.57089,114.96303 180.01531,114.73549 179.63608,114.28041 C 179.25684,113.82533 179.06723,113.15978 179.06723,112.28375 L 179.06723,112.28375 z M 190.26216,109.40539 C 190.14459,109.33713 190.01661,109.28688 189.87819,109.25463 C 189.73976,109.22241 189.58712,109.2063 189.42026,109.20629 C 188.82867,109.2063 188.37453,109.39875 188.05787,109.78367 C 187.74122,110.16859 187.58288,110.72132 187.58289,111.44185 L 187.58289,114.79806 L 186.53052,114.79806 L 186.53052,108.42696 L 187.58289,108.42696 L 187.58289,109.41676 C 187.80284,109.02994 188.08916,108.74268 188.44185,108.55495 C 188.79453,108.36724 189.22306,108.27338 189.72744,108.27337 C 189.79949,108.27338 189.87914,108.27812 189.96636,108.2876 C 190.05358,108.29708 190.15028,108.3113 190.25647,108.33026 L 190.26216,109.40539 z M 193.84022,109.16077 C 193.27895,109.16078 192.83525,109.37979 192.50911,109.8178 C 192.18296,110.25582 192.0199,110.85595 192.0199,111.6182 C 192.0199,112.38046 192.18202,112.9806 192.50626,113.41861 C 192.83051,113.85662 193.27515,114.07562 193.84022,114.07562 C 194.39768,114.07562 194.83949,113.85567 195.16563,113.41576 C 195.49176,112.97585 195.65483,112.37667 195.65484,111.6182 C 195.65483,110.86353 195.49176,110.26529 195.16563,109.82348 C 194.83949,109.38169 194.39768,109.16078 193.84022,109.16077 L 193.84022,109.16077 z M 193.84022,108.27337 C 194.75036,108.27338 195.46522,108.56919 195.98477,109.16077 C 196.50431,109.75238 196.76409,110.57152 196.7641,111.6182 C 196.76409,112.6611 196.50431,113.47929 195.98477,114.07278 C 195.46522,114.66628 194.75036,114.96303 193.84022,114.96303 C 192.92626,114.96303 192.21047,114.66628 191.69281,114.07278 C 191.17516,113.47929 190.91634,112.6611 190.91634,111.6182 C 190.91634,110.57152 191.17516,109.75238 191.69281,109.16077 C 192.21047,108.56919 192.92626,108.27338 193.84022,108.27337 L 193.84022,108.27337 z M 203.78937,110.95265 L 203.78937,114.79806 L 202.74268,114.79806 L 202.74268,110.98678 C 202.74268,110.3838 202.62512,109.93252 202.39,109.63292 C 202.15487,109.33333 201.80219,109.18354 201.33195,109.18353 C 200.76688,109.18354 200.32129,109.36367 199.99515,109.72394 C 199.66901,110.08421 199.50593,110.57532 199.50594,111.19725 L 199.50594,114.79806 L 198.45357,114.79806 L 198.45357,108.42696 L 199.50594,108.42696 L 199.50594,109.41676 C 199.75624,109.03374 200.05109,108.74742 200.3905,108.5578 C 200.7299,108.36819 201.12146,108.27338 201.56517,108.27337 C 202.29708,108.27338 202.85076,108.49998 203.22621,108.95315 C 203.60164,109.40634 203.78936,110.07283 203.78937,110.95265 L 203.78937,110.95265 z "
     id="flowRoot6979" />
  <rect
     width="15.000001"
     height="25.714287"
     ry="3.352941"
     x="176.17131"
     y="28.265257"
     style="fill:#ffeeaa;fill-opacity:0.54117856;stroke:#0b0808;stroke-width:0.34999999;stroke-miterlimit:4;stroke-dasharray:none;stroke-dashoffset:0;stroke-opacity:1"
     id="rect2186" />
  <path
     d="M 111.49189,12.599071 L 111.49189,4.3049534 C 111.49189,2.4474244 112.98731,0.95201237 114.84484,0.95201237 L 133.85324,0.95201237 C 135.71077,0.95201237 137.20618,2.4474244 137.20618,4.3049534 L 137.20618,12.599071 C 137.20618,14.456601 135.71077,15.952012 133.85324,15.952012 L 114.84484,15.952012 C 112.98731,15.952012 111.49189,14.456601 111.49189,12.599071 z "
     style="fill:#ffeeaa;fill-opacity:0.54117856;stroke:#0b0808;stroke-width:0.34999999;stroke-miterlimit:4;stroke-dasharray:none;stroke-dashoffset:0;stroke-opacity:1"
     id="rect3210" />
  <path
     d="M 176.01798,20.360748 L 176.06758,22.610085 C 176.06758,24.59052 177.56299,26.184878 179.42052,26.184878 L 187.71464,26.184878 C 189.57217,26.184878 191.06758,24.59052 191.06758,22.610085 L 191.07786,17.517554 C 190.84862,9.2545984 182.75253,2.1096324 173.6973,1.6015604 C 173.6973,1.6015604 169.13724,0.91044737 168.59834,5.0078934 L 168.37938,12.413188 C 168.37938,12.413188 168.09892,15.911874 171.79867,16.575095 C 173.44366,16.869978 175.60653,18.181576 176.01798,20.360748 z "
     style="fill:#ffeeaa;fill-opacity:0.54117856;stroke:#0b0808;stroke-width:0.34999999;stroke-miterlimit:4;stroke-dasharray:none;stroke-dashoffset:0;stroke-opacity:1"
     id="path3225" />
  <rect
     width="15.000001"
     height="25.714287"
     ry="3.352941"
     x="-15.952014"
     y="139.90498"
     transform="matrix(0,-1,1,0,0,0)"
     style="fill:#ffeeaa;fill-opacity:0.54117856;stroke:#0b0808;stroke-width:0.34999999;stroke-miterlimit:4;stroke-dasharray:none;stroke-dashoffset:0;stroke-opacity:1"
     id="rect3227" />
  <g
     transform="translate(149.76371,11.70198)"
     style="fill:url(#linearGradient5151);stroke:#000000;stroke-width:0;stroke-miterlimit:4;stroke-dasharray:none;stroke-opacity:1"
     id="g3233">
    <g
       style="fill:url(#linearGradient5151);stroke-width:0;stroke-miterlimit:4;stroke-dasharray:none"
       id="g3238">
      <path
         d="M -83.168661,95.643593 C -85.084723,103.80601 -91.188541,111.11165 -101.68821,111.11165 C -112.62822,111.11165 -120.54904,102.52769 -120.54904,91.951029 C -120.54904,81.374362 -113.34674,72.550895 -102.40673,72.550895 C -92.664261,72.550895 -85.892839,78.425132 -83.30896,87.468354 L -14.185499,87.959383 C -10.501134,87.985555 -9.5626795,85.795599 -9.3394395,85.523719 C -9.1046195,85.237739 -7.0782095,78.989769 -4.0995395,78.418059 C -1.1208695,77.846339 -0.3081395,80.117829 -0.3081395,82.897699 C -0.3081395,85.677579 -0.2815595,99.061001 -0.3935395,101.63349 C -0.5029095,104.14622 -1.1963695,106.21396 -4.0995395,105.73952 C -7.0027095,105.26508 -9.1686095,99.620581 -9.3394395,99.317851 C -9.5035295,99.027061 -10.287459,96.276193 -14.185499,96.291653 L -83.168661,95.643593 z "
         style="fill:url(#linearGradient5151);fill-opacity:1.0;fill-rule:evenodd;stroke:#000000;stroke-width:0.1;stroke-linecap:butt;stroke-linejoin:miter;stroke-miterlimit:4;stroke-dasharray:none;stroke-opacity:1"
         id="path2179" />
    </g>
  </g>
  <path
     d="M 51.801702,12.617991 L 51.750222,67.589896 C 51.743792,71.454096 53.914002,72.212716 54.185882,72.435956 C 54.471862,72.670776 60.719842,74.697186 61.291552,77.67586 C 61.863272,80.65453 59.591782,81.46726 56.811902,81.46726 C 54.032022,81.46726 40.648602,81.49384 38.076112,81.38186 C 35.563382,81.27249 33.495639,80.57903 33.970082,77.67586 C 34.444522,74.772686 40.089022,72.606786 40.391752,72.435956 C 40.682542,72.271866 43.433412,71.487936 43.417952,67.589896 L 43.635791,12.476689"
     style="fill:url(#linearGradient3356);fill-opacity:1;fill-rule:evenodd;stroke:#000000;stroke-width:0.38354924;stroke-linecap:butt;stroke-linejoin:miter;stroke-miterlimit:4;stroke-opacity:1"
     id="path3354" />
  <path
     d="M 83.078803,12.599071 L 83.078803,4.3049534 C 83.078803,2.4474244 84.574223,0.95201237 86.431753,0.95201237 L 105.44015,0.95201237 C 107.29768,0.95201237 108.79309,2.4474244 108.79309,4.3049534 L 108.79309,12.599071 C 108.79309,14.456601 107.29768,15.952012 105.44015,15.952012 L 86.431753,15.952012 C 84.574223,15.952012 83.078803,14.456601 83.078803,12.599071 z "
     style="fill:#ffeeaa;fill-opacity:0.54117856;stroke:#0b0808;stroke-width:0.34999999;stroke-miterlimit:4;stroke-dasharray:none;stroke-dashoffset:0;stroke-opacity:1"
     id="path4360" />
  <path
     d="M 54.66572,12.599071 L 54.66572,4.3049534 C 54.66572,2.4474244 56.16114,0.95201237 58.01867,0.95201237 L 77.02707,0.95201237 C 78.8846,0.95201237 80.38001,2.4474244 80.38001,4.3049534 L 80.38001,12.599071 C 80.38001,14.456601 78.8846,15.952012 77.02707,15.952012 L 58.01867,15.952012 C 56.16114,15.952012 54.66572,14.456601 54.66572,12.599071 z "
     style="fill:#ffeeaa;fill-opacity:0.54117856;stroke:#0b0808;stroke-width:0.34999999;stroke-miterlimit:4;stroke-dasharray:none;stroke-dashoffset:0;stroke-opacity:1"
     id="path4362" />
  <path
     d="M 14.563466,12.599071 L 14.563466,4.3049534 C 14.563466,2.4474244 16.058886,0.95201237 17.916416,0.95201237 L 36.924812,0.95201237 C 38.782342,0.95201237 40.277752,2.4474244 40.277752,4.3049534 L 40.277752,12.599071 C 40.277752,14.456601 38.782342,15.952012 36.924812,15.952012 L 17.916416,15.952012 C 16.058886,15.952012 14.563466,14.456601 14.563466,12.599071 z "
     style="fill:#ffeeaa;fill-opacity:0.54117856;stroke:#0b0808;stroke-width:0.34999999;stroke-miterlimit:4;stroke-dasharray:none;stroke-dashoffset:0;stroke-opacity:1"
     id="path4370" />
  <g
     transform="translate(54.437176,-17.237316)"
     style="fill:#ffd5d5"
     id="g4386">
    <g
       transform="translate(193.23777,-79.739437)"
       style="fill:#ffd5d5"
       id="g4374">
      <g
         style="fill:#ffd5d5"
         id="g4376">
        <g
           style="fill:#ffd5d5"
           id="g4378">
          <path
             d="M -247.36653,290.17906 C -247.47242,290.47026 -247.26442,298.605 -247.35976,298.8163 L -82.865457,298.8163 C -82.865457,298.8163 -60.347263,301.15536 -60.177906,282.69538 L -60.29766,248.87405 C -60.304085,245.00985 -58.405547,244.25123 -58.133668,244.02799 C -57.847694,243.79317 -51.599725,241.76676 -51.028007,238.78809 C -50.456289,235.80942 -52.727779,234.99669 -55.507656,234.99669 C -58.287534,234.99669 -71.670947,234.97011 -74.243447,235.08209 C -76.756177,235.19146 -78.823917,235.88492 -78.349477,238.78809 C -77.875037,241.69126 -72.230527,243.85716 -71.927807,244.02799 C -71.637007,244.19208 -68.886147,244.97601 -68.901597,248.87405 L -68.781847,282.55798 C -68.993537,291.49159 -82.263457,290.3485 -82.357377,290.34843 L -196.59806,290.26374 M -204.37981,290.43097 L -247.29489,290.17906"
             style="fill:url(#linearGradient4944);fill-opacity:1;fill-rule:evenodd;stroke:#000000;stroke-width:0.384;stroke-linecap:butt;stroke-linejoin:miter;stroke-miterlimit:4;stroke-dasharray:none;stroke-opacity:1"
             id="path4380" />
        </g>
      </g>
    </g>
    <path
       d="M -3.1744788,210.69897 L -3.2259588,155.72707 C -3.2323888,151.86287 -1.0621788,151.10425 -0.79029883,150.88101 C -0.50431883,150.64619 5.7436612,148.61978 6.3153712,145.64111 C 6.8870912,142.66244 4.6156012,141.84971 1.8357212,141.84971 C -0.94415883,141.84971 -14.327579,141.82313 -16.900069,141.93511 C -19.412799,142.04448 -21.480542,142.73794 -21.006099,145.64111 C -20.531659,148.54428 -14.887159,150.71018 -14.584429,150.88101 C -14.293639,151.0451 -11.542769,151.82903 -11.558229,155.72707 L -11.34039,210.84027"
       style="fill:url(#linearGradient4934);fill-opacity:1;fill-rule:evenodd;stroke:#000000;stroke-width:0.38354924;stroke-linecap:butt;stroke-linejoin:miter;stroke-miterlimit:4;stroke-opacity:1"
       id="path4382" />
  </g>
  <path
     d="M 23.930993,87.7018 L 25.114587,87.7018 L 25.114587,96.44985 L 23.930993,96.44985 L 23.930993,87.7018 z M 32.878259,92.48891 L 32.878259,96.44985 L 31.800134,96.44985 L 31.800134,92.52407 C 31.800128,91.90298 31.679035,91.43813 31.436853,91.12953 C 31.19466,90.82095 30.831379,90.66665 30.347009,90.66664 C 29.764974,90.66665 29.30599,90.8522 28.970056,91.22328 C 28.634116,91.59438 28.466147,92.10024 28.466149,92.74086 L 28.466149,96.44985 L 27.382165,96.44985 L 27.382165,89.88735 L 28.466149,89.88735 L 28.466149,90.90688 C 28.72396,90.51235 29.02767,90.21743 29.377282,90.02211 C 29.726888,89.82681 30.130208,89.72915 30.587243,89.72914 C 31.341144,89.72915 31.911456,89.96255 32.298181,90.42934 C 32.684893,90.89614 32.878252,91.58266 32.878259,92.48891 L 32.878259,92.48891 z M 40.495446,92.48891 L 40.495446,96.44985 L 39.417321,96.44985 L 39.417321,92.52407 C 39.417316,91.90298 39.296222,91.43813 39.05404,91.12953 C 38.811848,90.82095 38.448567,90.66665 37.964196,90.66664 C 37.382162,90.66665 36.923178,90.8522 36.587243,91.22328 C 36.251303,91.59438 36.083335,92.10024 36.083337,92.74086 L 36.083337,96.44985 L 34.999353,96.44985 L 34.999353,87.33266 L 36.083337,87.33266 L 36.083337,90.90688 C 36.341147,90.51235 36.644858,90.21743 36.99447,90.02211 C 37.344076,89.82681 37.747396,89.72915 38.204431,89.72914 C 38.958332,89.72915 39.528644,89.96255 39.915368,90.42934 C 40.302081,90.89614 40.49544,91.58266 40.495446,92.48891 L 40.495446,92.48891 z M 42.657556,89.88735 L 43.73568,89.88735 L 43.73568,96.44985 L 42.657556,96.44985 L 42.657556,89.88735 z M 42.657556,87.33266 L 43.73568,87.33266 L 43.73568,88.69789 L 42.657556,88.69789 L 42.657556,87.33266 z M 50.69662,93.17446 C 50.69662,92.38149 50.53353,91.75942 50.20737,91.30825 C 49.88119,90.85708 49.43295,90.63149 48.86264,90.63149 C 48.29232,90.63149 47.84408,90.85708 47.51791,91.30825 C 47.19174,91.75942 47.02865,92.38149 47.02865,93.17446 C 47.02865,93.96743 47.19174,94.5895 47.51791,95.04067 C 47.84408,95.49184 48.29232,95.71743 48.86264,95.71743 C 49.43295,95.71743 49.88119,95.49184 50.20737,95.04067 C 50.53353,94.5895 50.69662,93.96743 50.69662,93.17446 L 50.69662,93.17446 z M 47.02865,90.88344 C 47.25521,90.49282 47.54135,90.20278 47.88705,90.01332 C 48.23275,89.82388 48.64584,89.72915 49.12631,89.72914 C 49.92318,89.72915 50.57064,90.04556 51.06869,90.67836 C 51.56673,91.31118 51.81576,92.14321 51.81576,93.17446 C 51.81576,94.20571 51.56673,95.03774 51.06869,95.67055 C 50.57064,96.30336 49.92318,96.61977 49.12631,96.61977 C 48.64584,96.61977 48.23275,96.52504 47.88705,96.33559 C 47.54135,96.14614 47.25521,95.8561 47.02865,95.46547 L 47.02865,96.44985 L 45.94467,96.44985 L 45.94467,87.33266 L 47.02865,87.33266 L 47.02865,90.88344 z M 53.60287,89.88735 L 54.681,89.88735 L 54.681,96.44985 L 53.60287,96.44985 L 53.60287,89.88735 z M 53.60287,87.33266 L 54.681,87.33266 L 54.681,88.69789 L 53.60287,88.69789 L 53.60287,87.33266 z M 57.9974,88.02407 L 57.9974,89.88735 L 60.21811,89.88735 L 60.21811,90.72524 L 57.9974,90.72524 L 57.9974,94.28774 C 57.9974,94.8229 58.07064,95.16665 58.21713,95.31899 C 58.36361,95.47133 58.66146,95.5475 59.11069,95.5475 L 60.21811,95.5475 L 60.21811,96.44985 L 59.11069,96.44985 C 58.27865,96.44985 57.70443,96.29457 57.38803,95.98403 C 57.07162,95.67348 56.91342,95.10805 56.91342,94.28774 L 56.91342,90.72524 L 56.1224,90.72524 L 56.1224,89.88735 L 56.91342,89.88735 L 56.91342,88.02407 L 57.9974,88.02407 z M 64.1849,90.64321 C 63.60678,90.64321 63.14975,90.8688 62.81381,91.31996 C 62.47787,91.77114 62.3099,92.3893 62.3099,93.17446 C 62.3099,93.95961 62.47689,94.57778 62.81088,95.02895 C 63.14486,95.48012 63.60287,95.70571 64.1849,95.70571 C 64.75912,95.70571 65.2142,95.47914 65.55014,95.02602 C 65.88607,94.5729 66.05404,93.95571 66.05405,93.17446 C 66.05404,92.39712 65.88607,91.78091 65.55014,91.32582 C 65.2142,90.87075 64.75912,90.64321 64.1849,90.64321 L 64.1849,90.64321 z M 64.1849,89.72914 C 65.1224,89.72915 65.85873,90.03384 66.39389,90.64321 C 66.92904,91.25259 67.19662,92.09634 67.19662,93.17446 C 67.19662,94.24868 66.92904,95.09145 66.39389,95.70278 C 65.85873,96.31411 65.1224,96.61977 64.1849,96.61977 C 63.2435,96.61977 62.50619,96.31411 61.97299,95.70278 C 61.43979,95.09145 61.17319,94.24868 61.17319,93.17446 C 61.17319,92.09634 61.43979,91.25259 61.97299,90.64321 C 62.50619,90.03384 63.2435,89.72915 64.1849,89.72914 L 64.1849,89.72914 z M 72.78061,90.89516 C 72.65951,90.82485 72.52767,90.77309 72.3851,90.73989 C 72.24252,90.70669 72.08529,90.69009 71.91342,90.69008 C 71.30404,90.69009 70.83627,90.88833 70.5101,91.28481 C 70.18393,91.6813 70.02084,92.25063 70.02084,92.99282 L 70.02084,96.44985 L 68.93686,96.44985 L 68.93686,89.88735 L 70.02084,89.88735 L 70.02084,90.90688 C 70.2474,90.50845 70.54232,90.21255 70.90561,90.01918 C 71.26889,89.82583 71.71029,89.72915 72.22983,89.72914 C 72.30404,89.72915 72.38607,89.73403 72.47592,89.74379 C 72.56576,89.75356 72.66537,89.76821 72.77475,89.78774 L 72.78061,90.89516 z M 76.65365,97.05922 C 76.34896,97.84047 76.05209,98.35024 75.76303,98.58852 C 75.47396,98.8268 75.08725,98.94594 74.60287,98.94594 L 73.74155,98.94594 L 73.74155,98.0436 L 74.37436,98.0436 C 74.67123,98.0436 74.9017,97.97328 75.06576,97.83266 C 75.22982,97.69203 75.41146,97.36 75.61069,96.83657 L 75.80405,96.34438 L 73.14975,89.88735 L 74.29233,89.88735 L 76.34311,95.02016 L 78.39389,89.88735 L 79.53647,89.88735 L 76.65365,97.05922 z M 17.204431,109.438 L 18.282556,109.438 L 18.282556,116.0005 L 17.204431,116.0005 L 17.204431,109.438 z M 17.204431,106.88331 L 18.282556,106.88331 L 18.282556,108.24854 L 17.204431,108.24854 L 17.204431,106.88331 z M 25.987634,112.03956 L 25.987634,116.0005 L 24.909509,116.0005 L 24.909509,112.07472 C 24.909503,111.45363 24.78841,110.98878 24.546228,110.68018 C 24.304035,110.3716 23.940754,110.2173 23.456384,110.21729 C 22.874349,110.2173 22.415365,110.40285 22.079431,110.77393 C 21.743491,111.14503 21.575522,111.65089 21.575524,112.29151 L 21.575524,116.0005 L 20.49154,116.0005 L 20.49154,109.438 L 21.575524,109.438 L 21.575524,110.45753 C 21.833335,110.063 22.137045,109.76808 22.486657,109.57276 C 22.836263,109.37746 23.239583,109.2798 23.696618,109.27979 C 24.450519,109.2798 25.020831,109.5132 25.407556,109.97999 C 25.794268,110.44679 25.987627,111.13331 25.987634,112.03956 L 25.987634,112.03956 z M 29.216149,107.57472 L 29.216149,109.438 L 31.436853,109.438 L 31.436853,110.27589 L 29.216149,110.27589 L 29.216149,113.83839 C 29.216147,114.37355 29.289389,114.7173 29.435876,114.86964 C 29.582358,115.02198 29.880209,115.09815 30.329431,115.09815 L 31.436853,115.09815 L 31.436853,116.0005 L 30.329431,116.0005 C 29.497397,116.0005 28.923179,115.84522 28.606774,115.53468 C 28.290367,115.22413 28.132164,114.6587 28.132165,113.83839 L 28.132165,110.27589 L 27.341149,110.27589 L 27.341149,109.438 L 28.132165,109.438 L 28.132165,107.57472 L 29.216149,107.57472 z M 38.473962,112.44972 L 38.473962,112.97706 L 33.516931,112.97706 C 33.563804,113.71925 33.787436,114.28468 34.187829,114.67335 C 34.588217,115.06202 35.145834,115.25636 35.860681,115.25636 C 36.274739,115.25636 36.676105,115.20558 37.064782,115.10401 C 37.453448,115.00245 37.83919,114.85011 38.222009,114.64698 L 38.222009,115.66651 C 37.835284,115.83058 37.4388,115.95558 37.032556,116.04151 C 36.626301,116.12745 36.214192,116.17042 35.796228,116.17042 C 34.74935,116.17042 33.920249,115.86573 33.308923,115.25636 C 32.697594,114.64698 32.39193,113.82276 32.391931,112.7837 C 32.39193,111.70949 32.681969,110.85695 33.262048,110.22608 C 33.842124,109.59523 34.62435,109.2798 35.608728,109.27979 C 36.491535,109.2798 37.189777,109.56398 37.703454,110.13233 C 38.21712,110.7007 38.473955,111.47316 38.473962,112.44972 L 38.473962,112.44972 z M 37.395837,112.13331 C 37.388019,111.54347 37.22298,111.07277 36.90072,110.7212 C 36.578449,110.36964 36.151692,110.19386 35.620446,110.19386 C 35.018881,110.19386 34.537436,110.36378 34.17611,110.70362 C 33.81478,111.04347 33.606773,111.52199 33.552087,112.13917 L 37.395837,112.13331 z M 44.04623,110.44581 C 43.92513,110.3755 43.79329,110.32375 43.65072,110.29054 C 43.508137,110.25734 43.350911,110.24074 43.17904,110.24073 C 42.569662,110.24074 42.101889,110.43898 41.77572,110.83546 C 41.449546,111.23195 41.28646,111.80128 41.286462,112.54347 L 41.286462,116.0005 L 40.202478,116.0005 L 40.202478,109.438 L 41.286462,109.438 L 41.286462,110.45753 C 41.513022,110.0591 41.807944,109.7632 42.171228,109.56983 C 42.534505,109.37648 42.975911,109.2798 43.495446,109.27979 C 43.56966,109.2798 43.65169,109.28468 43.74154,109.29444 C 43.83138,109.30421 43.93099,109.31886 44.04037,109.33839 L 44.04623,110.44581 z M 50.64389,112.03956 L 50.64389,116.0005 L 49.56576,116.0005 L 49.56576,112.07472 C 49.56576,111.45363 49.44466,110.98878 49.20248,110.68018 C 48.96029,110.3716 48.59701,110.2173 48.11264,110.21729 C 47.5306,110.2173 47.07162,110.40285 46.73569,110.77393 C 46.39975,111.14503 46.23178,111.65089 46.23178,112.29151 L 46.23178,116.0005 L 45.14779,116.0005 L 45.14779,109.438 L 46.23178,109.438 L 46.23178,110.45753 C 46.48959,110.063 46.7933,109.76808 47.14291,109.57276 C 47.49252,109.37746 47.89584,109.2798 48.35287,109.27979 C 49.10677,109.2798 49.67709,109.5132 50.06381,109.97999 C 50.45052,110.44679 50.64388,111.13331 50.64389,112.03956 L 50.64389,112.03956 z M 58.41928,112.44972 L 58.41928,112.97706 L 53.46225,112.97706 C 53.50912,113.71925 53.73275,114.28468 54.13315,114.67335 C 54.53353,115.06202 55.09115,115.25636 55.806,115.25636 C 56.22006,115.25636 56.62142,115.20558 57.0101,115.10401 C 57.39877,115.00245 57.78451,114.85011 58.16733,114.64698 L 58.16733,115.66651 C 57.7806,115.83058 57.38412,115.95558 56.97787,116.04151 C 56.57162,116.12745 56.15951,116.17042 55.74155,116.17042 C 54.69467,116.17042 53.86557,115.86573 53.25424,115.25636 C 52.64291,114.64698 52.33725,113.82276 52.33725,112.7837 C 52.33725,111.70949 52.62729,110.85695 53.20737,110.22608 C 53.78744,109.59523 54.56967,109.2798 55.55405,109.27979 C 56.43685,109.2798 57.13509,109.56398 57.64877,110.13233 C 58.16244,110.7007 58.41927,111.47316 58.41928,112.44972 L 58.41928,112.44972 z M 57.34115,112.13331 C 57.33334,111.54347 57.1683,111.07277 56.84604,110.7212 C 56.52377,110.36964 56.09701,110.19386 55.56576,110.19386 C 54.9642,110.19386 54.48275,110.36378 54.12143,110.70362 C 53.7601,111.04347 53.55209,111.52199 53.4974,112.13917 L 57.34115,112.13331 z M 60.07748,113.41065 L 60.07748,109.438 L 61.15561,109.438 L 61.15561,113.36964 C 61.15561,113.99073 61.2767,114.45655 61.51889,114.7671 C 61.76107,115.07765 62.12435,115.23292 62.60873,115.23292 C 63.19076,115.23292 63.65072,115.04737 63.98862,114.67628 C 64.3265,114.30519 64.49545,113.79933 64.49545,113.1587 L 64.49545,109.438 L 65.57358,109.438 L 65.57358,116.0005 L 64.49545,116.0005 L 64.49545,114.99268 C 64.23373,115.39112 63.93002,115.68702 63.58432,115.88038 C 63.23861,116.07374 62.83724,116.17042 62.38022,116.17042 C 61.62631,116.17042 61.05404,115.93604 60.66342,115.46729 C 60.27279,114.99855 60.07748,114.313 60.07748,113.41065 L 60.07748,113.41065 z M 71.60873,110.44581 C 71.48763,110.3755 71.3558,110.32375 71.21322,110.29054 C 71.07064,110.25734 70.91342,110.24074 70.74155,110.24073 C 70.13217,110.24074 69.66439,110.43898 69.33822,110.83546 C 69.01205,111.23195 68.84896,111.80128 68.84897,112.54347 L 68.84897,116.0005 L 67.76498,116.0005 L 67.76498,109.438 L 68.84897,109.438 L 68.84897,110.45753 C 69.07553,110.0591 69.37045,109.7632 69.73373,109.56983 C 70.09701,109.37648 70.53842,109.2798 71.05795,109.27979 C 71.13217,109.2798 71.2142,109.28468 71.30405,109.29444 C 71.39388,109.30421 71.49349,109.31886 71.60287,109.33839 L 71.60873,110.44581 z M 75.29428,110.19386 C 74.71615,110.19386 74.25912,110.41945 73.92319,110.87061 C 73.58725,111.32179 73.41928,111.93995 73.41928,112.72511 C 73.41928,113.51027 73.58627,114.12843 73.92026,114.5796 C 74.25424,115.03077 74.71225,115.25636 75.29428,115.25636 C 75.86849,115.25636 76.32357,115.02979 76.65951,114.57667 C 76.99545,114.12355 77.16341,113.50636 77.16342,112.72511 C 77.16341,111.94777 76.99545,111.33156 76.65951,110.87647 C 76.32357,110.4214 75.86849,110.19386 75.29428,110.19386 L 75.29428,110.19386 z M 75.29428,109.27979 C 76.23177,109.2798 76.9681,109.58449 77.50326,110.19386 C 78.03841,110.80324 78.30599,111.64699 78.306,112.72511 C 78.30599,113.79933 78.03841,114.6421 77.50326,115.25343 C 76.9681,115.86476 76.23177,116.17042 75.29428,116.17042 C 74.35287,116.17042 73.61557,115.86476 73.08237,115.25343 C 72.54916,114.6421 72.28256,113.79933 72.28256,112.72511 C 72.28256,111.64699 72.54916,110.80324 73.08237,110.19386 C 73.61557,109.58449 74.35287,109.2798 75.29428,109.27979 L 75.29428,109.27979 z M 85.54233,112.03956 L 85.54233,116.0005 L 84.4642,116.0005 L 84.4642,112.07472 C 84.4642,111.45363 84.3431,110.98878 84.10092,110.68018 C 83.85873,110.3716 83.49545,110.2173 83.01108,110.21729 C 82.42904,110.2173 81.97006,110.40285 81.63412,110.77393 C 81.29818,111.14503 81.13021,111.65089 81.13022,112.29151 L 81.13022,116.0005 L 80.04623,116.0005 L 80.04623,109.438 L 81.13022,109.438 L 81.13022,110.45753 C 81.38803,110.063 81.69174,109.76808 82.04135,109.57276 C 82.39096,109.37746 82.79428,109.2798 83.25131,109.27979 C 84.00521,109.2798 84.57552,109.5132 84.96225,109.97999 C 85.34896,110.44679 85.54232,111.13331 85.54233,112.03956 L 85.54233,112.03956 z "
     style="font-size:12px;font-style:normal;font-weight:normal;text-align:center;text-anchor:middle;fill:#000000;fill-opacity:1;stroke:none;stroke-width:1px;stroke-linecap:butt;stroke-linejoin:miter;stroke-opacity:1;font-family:Bitstream Vera Sans"
     id="text4395" />
  <g
     transform="translate(223.47784,-93.6746)"
     id="g4450">
    <path
       d="M -118.47595,113.12279 L -113.03769,113.12279 L -118.68922,121.99737 L -113.99738,121.99737 L -119.96882,130.87195 L -114.53055,130.75817 L -124.55401,146.34558 L -119.32902,134.74035 L -123.70095,134.85413 L -118.79585,125.752 L -122.84789,125.97955 L -118.47595,113.12279 z "
       style="fill:#fff800;fill-opacity:1;fill-rule:evenodd;stroke:#000000;stroke-width:1px;stroke-linecap:butt;stroke-linejoin:miter;stroke-opacity:1"
       id="path4452" />
    <g
       transform="matrix(0.7416367,0,0,0.7416367,10.815846,93.946374)"
       id="g4454" />
  </g>
  <path
     d="M 103.55954,89.86904 L 108.9978,89.86904 L 103.34627,98.74362 L 108.03811,98.74362 L 102.06667,107.61821 L 107.50494,107.50443 L 97.481474,123.09183 L 102.70647,111.48661 L 98.334544,111.60038 L 103.23964,102.49824 L 99.187604,102.7258 L 103.55954,89.86904 z "
     style="fill:#fff800;fill-opacity:1;fill-rule:evenodd;stroke:#000000;stroke-width:1px;stroke-linecap:butt;stroke-linejoin:miter;stroke-opacity:1"
     id="path4462" />
  <path
     d="M 109.98951,179.53148 L 115.42777,179.53148 L 109.77624,188.40606 L 114.46808,188.40606 L 108.49664,197.28064 L 113.93491,197.16686 L 103.91145,212.75426 L 109.13644,201.14904 L 104.76451,201.26281 L 109.66961,192.16068 L 105.61757,192.38824 L 109.98951,179.53148 z "
     style="fill:#fff800;fill-opacity:1;fill-rule:evenodd;stroke:#000000;stroke-width:1px;stroke-linecap:butt;stroke-linejoin:miter;stroke-opacity:1"
     id="path3358" />
  <g
     transform="translate(357.57778,-25.882772)"
     id="g4440">
    <path
       d="M -118.47595,113.12279 L -113.03769,113.12279 L -118.68922,121.99737 L -113.99738,121.99737 L -119.96882,130.87195 L -114.53055,130.75817 L -124.55401,146.34558 L -119.32902,134.74035 L -123.70095,134.85413 L -118.79585,125.752 L -122.84789,125.97955 L -118.47595,113.12279 z "
       style="fill:#fff800;fill-opacity:1;fill-rule:evenodd;stroke:#000000;stroke-width:1px;stroke-linecap:butt;stroke-linejoin:miter;stroke-opacity:1"
       id="path4442" />
    <g
       transform="matrix(0.7416367,0,0,0.7416367,10.815846,93.946374)"
       id="g4444">
      <path
         d="M -211.35825 78.677902 A 17.274471 17.274471 0 1 1  -245.90719,78.677902 A 17.274471 17.274471 0 1 1  -211.35825 78.677902 z"
         transform="matrix(0.9847606,0,0,0.9847606,50.726723,-31.374054)"
         style="opacity:0.86111109;fill:#000000;fill-opacity:0;fill-rule:nonzero;stroke:#ed1212;stroke-width:2.73847079;stroke-miterlimit:4;stroke-dasharray:none;stroke-dashoffset:0;stroke-opacity:1"
         id="path4446" />
      <path
         d="M -185.69835,33.472241 L -163.27725,58.25191"
         style="opacity:0.86111109;fill:none;fill-rule:evenodd;stroke:#f20202;stroke-width:2.696738;stroke-linecap:butt;stroke-linejoin:miter;stroke-miterlimit:4;stroke-dasharray:none;stroke-opacity:1"
         id="path4448" />
    </g>
  </g>
  <path
     d="M 0.31313351,15.952012 L 0.31313351,0.95201237 L 8.0346749,0.95201237 C 9.8922049,0.95201237 11.387615,2.4474244 11.387615,4.3049534 L 11.387615,12.599071 C 11.387615,14.456601 9.8922049,15.952012 8.0346749,15.952012 L 0.31313351,15.952012 z "
     style="fill:#ffeeaa;fill-opacity:0.54117856;stroke:#0b0808;stroke-width:0.34999999;stroke-miterlimit:4;stroke-dasharray:none;stroke-dashoffset:0;stroke-opacity:1"
     id="path5465" />
</svg>
